<?xml version="1.0"?>
<svg xmlns="http://www.w3.org/2000/svg" xmlns:xlink="http://www.w3.org/1999/xlink" xmlns:svgjs="http://svgjs.com/svgjs" version="1.1" width="512" height="512" x="0" y="0" viewBox="0 0 512 512" style="enable-background:new 0 0 512 512" xml:space="preserve" class=""><g><path xmlns="http://www.w3.org/2000/svg" d="m409.601562 179.199219c0 42.667969-25.601562 162.132812-59.734374 162.132812-18.234376 1.273438-35.847657 7.144531-51.199219 17.066407 0 0-25.601563 34.136718-42.667969 34.136718-25.597656 0-102.398438 110.929688-179.199219 110.929688-3.628906.035156-7.246093-.425782-10.753906-1.363282-7.972656-1.191406-14.101563-7.671874-14.847656-15.703124 0-8.53125 8.535156-17.066407 8.535156-42.664063-1.921875-22.214844-6.445313-44.125-13.484375-65.28125-2.132812-7.128906-.199219-14.851563 5.035156-20.136719 2.390625-2.371094 3.742188-5.59375 3.753906-8.960937-.023437-2.953125-1.046874-5.808594-2.898437-8.109375-14.253906-17.320313-43.605469-59.21875-43.605469-110.847656 0-59.730469 42.664063-128 51.199219-145.066407 3.945313-10.875 12.605469-19.375 23.550781-23.125l.085938-.085937c6.183594-1.761719 12.601562-2.566406 19.03125-2.386719 17.183594-31.15625 49.753906-50.699219 85.332031-51.199219h67.414063c5.183593 0 9.386718 4.199219 9.386718 9.386719-.003906 3.082031 1.53125 5.960937 4.09375 7.679687l.085938.082032 2.988281 1.367187c9.574219 2.230469 18.9375 5.285157 27.988281 9.128907 32.339844 13.65625 76.289063 43.777343 83.371094 107.777343.625 6.039063.9375 12.105469.9375 18.175781 0 0 25.601562 8.535157 25.601562 17.066407zm0 0" fill="#964b36" data-original="#c52828" style="" class=""/><path xmlns="http://www.w3.org/2000/svg" d="m384 179.199219c0 42.667969-25.597656 162.132812-59.734375 162.132812-18.234375 1.273438-35.847656 7.144531-51.199219 17.066407 0 0-25.597656 34.136718-42.664062 34.136718-23.980469 0-92.757813 97.109375-164.355469 109.566406-7.972656-1.191406-14.101563-7.671874-14.847656-15.703124 0-8.53125 8.535156-17.066407 8.535156-42.664063-1.921875-22.214844-6.445313-44.125-13.484375-65.28125-2.132812-7.128906-.199219-14.851563 5.035156-20.136719 2.390625-2.371094 3.742188-5.59375 3.753906-8.960937-.023437-2.953125-1.046874-5.808594-2.898437-8.109375-14.253906-17.320313-43.605469-59.21875-43.605469-110.847656 0-59.730469 42.664063-128 51.199219-145.066407 3.945313-10.875 12.605469-19.375 23.550781-23.125l.085938-.085937c6.183594-1.761719 12.601562-2.566406 19.03125-2.386719 17.183594-31.15625 49.753906-50.699219 85.332031-51.199219h41.8125c2.488281 0 4.878906.988282 6.636719 2.746094 1.761718 1.761719 2.75 4.148438 2.75 6.640625-.003906 3.082031 1.535156 5.960937 4.097656 7.679687l.082031.082032 2.988281 1.367187c9.574219 2.230469 18.941407 5.285157 27.988282 9.128907 32.34375 13.65625 76.289062 43.777343 83.371094 107.777343.625 6.039063.9375 12.105469.941406 18.175781 0 0 25.597656 8.535157 25.597656 17.066407zm0 0" fill="#fcb711" data-original="#f44335" style="" class=""/><path xmlns="http://www.w3.org/2000/svg" d="m315.734375 170.667969c-1.167969 20.214843-4.894531 40.199219-11.09375 59.476562-1.707031 5.71875-3.585937 11.519531-5.71875 17.238281-6.191406 18.140626-15.113281 35.230469-26.453125 50.6875-2.417969 3.234376-5.070312 6.285157-7.933594 9.128907-1.195312 1.195312-2.476562 2.390625-3.839844 3.585937-36.351562 31.742188-117.164062 47.613282-158.292968 47.613282-5.800782-.027344-11.59375-.480469-17.324219-1.363282-6.269531-.882812-12.480469-2.136718-18.601563-3.753906-3.925781-1.109375-7.851562-2.304688-11.519531-3.585938.128907-3.066406-.875-6.074218-2.816406-8.449218-17.960937-21.667969-31.160156-46.875-38.742187-73.980469-3.183594-12.03125-4.816407-24.421875-4.863282-36.867187-.011718-4.128907.1875-8.261719.597656-12.371094 1.152344-11.910156 3.4375-23.683594 6.824219-35.15625v-.085938c1.792969-6.488281 3.925781-12.886718 6.230469-19.117187 5.117188-13.945313 11.015625-27.589844 17.664062-40.875 9.214844-1.191407 18.945313-2.132813 29.441407-2.644531.253906 0 .425781-.085938.679687-.085938 5.460938-.253906 11.179688-.425781 17.066406-.511719 2.304688-.085937 4.523438-.085937 6.828126-.085937 20.992187 0 41.472656.769531 60.929687 2.304687.082031-.085937.082031-.085937.167969 0 24.445312 1.683594 48.773437 4.730469 72.875 9.132813 6.230468 1.109375 12.117187 2.386718 17.75 3.667968 12.089844 2.640626 24 6.035157 35.667968 10.15625 5.386719 1.871094 10.636719 4.125 15.703126 6.738282 12.03125 6.058594 18.773437 12.632812 18.773437 19.203125zm0 0" fill="#586270" data-original="#586270" style="" class=""/><path xmlns="http://www.w3.org/2000/svg" d="m307.199219 170.667969c-1.167969 20.214843-4.894531 40.199219-11.09375 59.476562-1.703125 5.71875-3.582031 11.519531-5.714844 17.238281-6.195313 18.140626-15.113281 35.230469-26.453125 50.6875-2.417969 3.234376-5.070312 6.285157-7.9375 9.128907-1.195312 1.195312-2.472656 2.390625-3.839844 3.585937-36.351562 31.742188-117.164062 47.613282-158.292968 47.613282-5.800782-.027344-11.589844-.480469-17.324219-1.363282-6.269531-.882812-12.480469-2.136718-18.601563-3.753906-3.925781-1.109375-7.851562-2.304688-11.519531-3.585938.128906-3.066406-.875-6.070312-2.816406-8.449218-17.960938-21.667969-31.160157-46.875-38.742188-73.980469-3.183593-12.03125-4.816406-24.421875-4.863281-36.867187-.0117188-4.128907.1875-8.261719.597656-12.371094 1.152344-11.910156 3.4375-23.683594 6.828125-35.15625v-.085938c1.789063-6.488281 3.925781-12.886718 6.226563-19.117187 5.121094-13.945313 11.015625-27.589844 17.664062-40.875 9.21875-1.191407 18.945313-2.132813 29.441406-2.644531.257813 0 .425782-.085938.683594-.085938 5.460938-.253906 11.179688-.425781 17.066406-.511719 2.304688-.085937 4.523438-.085937 6.824219-.085937 20.992188 0 41.472657.769531 60.929688 2.304687.085937-.085937.085937-.085937.171875 0 24.441406 1.683594 48.769531 4.730469 72.875 9.132813 6.226562 1.109375 12.117187 2.386718 17.746094 3.667968 12.089843 2.640626 24.003906 6.035157 35.671874 10.15625 5.386719 1.871094 10.632813 4.125 15.699219 6.738282 2.949219 1.464844 5.800781 3.117187 8.535157 4.949218 6.65625 4.695313 10.238281 9.472657 10.238281 14.253907zm0 0" fill="#37474f" data-original="#37474f" style=""/><path xmlns="http://www.w3.org/2000/svg" d="m298.667969 162.132812c-1.167969 20.214844-4.894531 40.199219-11.09375 59.476563-1.707031 5.71875-3.585938 11.519531-5.71875 17.238281-6.191407 18.140625-15.113281 35.234375-26.453125 50.6875-2.417969 3.234375-5.070313 6.285156-7.933594 9.132813-1.195312 1.195312-2.476562 2.386719-3.839844 3.582031-36.355468 31.746094-117.164062 47.617188-158.296875 47.617188-5.796875-.027344-11.589843-.484376-17.320312-1.367188-6.269531-.878906-12.480469-2.132812-18.601563-3.753906l-4.355468-1.28125c-.402344-.789063-.886719-1.53125-1.449219-2.21875-17.960938-21.667969-31.160157-46.875-38.742188-73.980469-3.183593-12.03125-4.816406-24.421875-4.863281-36.867187-.0117188-4.128907.1875-8.261719.597656-12.371094 1.152344-11.910156 3.4375-23.683594 6.828125-35.15625v-.085938c1.789063-6.488281 3.925781-12.886718 6.226563-19.117187 5.121094-13.945313 11.015625-27.589844 17.664062-40.875 9.21875-1.191407 18.945313-2.132813 29.441406-2.644531.257813 0 .425782-.085938.683594-.085938 5.460938-.253906 11.179688-.425781 17.066406-.511719 2.304688-.085937 4.523438-.085937 6.824219-.085937 20.992188 0 41.472657.769531 60.929688 2.304687.085937-.085937.085937-.085937.171875 0 24.441406 1.683594 48.769531 4.730469 72.875 9.132813 6.226562 1.109375 12.117187 2.386718 17.746094 3.667968 12.089843 2.640626 24.003906 6.035157 35.671874 10.15625 5.386719 1.871094 10.632813 4.125 15.699219 6.738282 2.949219 1.464844 5.800781 3.117187 8.535157 4.949218 1.066406 1.722657 1.65625 3.695313 1.707031 5.71875zm0 0" fill="#d1dce2" data-original="#607d8b" style="" class=""/><path xmlns="http://www.w3.org/2000/svg" d="m76.800781 512c-22.410156 0-34.132812-12.875-34.132812-25.601562.242187-4.53125 1.296875-8.980469 3.113281-13.140626 3.746094-9.382812 5.589844-19.421874 5.417969-29.523437-1.785157-21.402344-6.179688-42.507813-13.089844-62.839844-3.074219-10.144531-.3125-21.160156 7.1875-28.65625 1.503906-1.507812 1.605469-3.914062.238281-5.546875-13.695312-16.613281-45.535156-61.21875-45.535156-116.292968 0-53.757813 32.9375-113.765626 47.011719-139.398438 2.191406-4.003906 3.949219-7.210938 5.117187-9.480469 7.058594-18.734375 25.277344-30.886719 45.289063-30.199219 19.105469-31.675781 53.324219-51.121093 90.316406-51.320312h67.414063c9.894531 0 17.917968 8.023438 17.917968 17.921875-.023437.367187.222656.703125.582032.792969 27.367187 6.3125 115.453124 34.695312 118.78125 137.386718 12.792968 4.949219 25.703124 12.550782 25.703124 23.097657-1.589843 33.785156-7.449218 67.230469-17.433593 99.542969-14.300781 47.230468-31.410157 71.125-50.832031 71.125-16.113282 1.132812-31.691407 6.257812-45.328126 14.914062-6.445312 8.371094-29.355468 36.285156-48.539062 36.285156-6.050781 0-25.105469 17.441406-40.414062 31.472656-36.625 33.535157-86.785157 79.460938-138.785157 79.460938zm110.933594-494.933594c-32.402344.324219-62.113281 18.105469-77.714844 46.507813-1.449219 2.875-4.398437 4.691406-7.617187 4.691406-22.1875 0-27.941406 6.691406-35.03125 20.882813-1.210938 2.414062-3.070313 5.820312-5.402344 10.058593-13.429688 24.527344-44.902344 81.84375-44.902344 131.191407 0 49.546874 29.125 90.25 41.644532 105.449218 6.984374 8.402344 6.398437 20.75-1.347657 28.457032-3.050781 3.054687-4.171875 7.539062-2.910156 11.664062 7.347656 21.941406 11.988281 44.699219 13.8125 67.765625.160156 12.101563-2.035156 24.121094-6.457031 35.386719-1.03125 2.316406-1.730469 4.765625-2.074219 7.277344 0 4.140624 5.972656 8.535156 17.066406 8.535156 45.371094 0 92.699219-43.339844 127.257813-74.992188 25.796875-23.621094 39.824218-35.941406 51.941406-35.941406 7.875 0 24.746094-15.949219 35.839844-30.71875.582031-.773438 1.289062-1.4375 2.089844-1.972656 16.746093-10.875 36.011718-17.25 55.9375-18.507813 16.835937 0 50.832031-83.578125 51.199218-152.492187-5.917968-4.535156-12.613281-7.953125-19.761718-10.078125-3.488282-1.160157-5.839844-4.421875-5.835938-8.097657 0-95.035156-80.871094-121.070312-105.652344-126.789062-8.117187-1.859375-13.855468-9.097656-13.816406-17.421875 0-.472656-.382812-.855469-.851562-.855469zm0 0" fill="#000000" data-original="#000000" style="" class=""/><path xmlns="http://www.w3.org/2000/svg" d="m384 170.667969c-1.082031 0-2.15625-.207031-3.164062-.605469-13.660157-5.417969-27.605469-10.082031-41.773438-13.972656-4.492188-1.214844-7.183594-5.808594-6.046875-10.324219 1.140625-4.511719 5.6875-7.28125 10.222656-6.21875 14.902344 4.0625 29.570313 8.957031 43.929688 14.660156 3.800781 1.515625 5.992187 5.515625 5.21875 9.539063-.773438 4.019531-4.292969 6.925781-8.386719 6.921875zm0 0" fill="#000000" data-original="#000000" style="" class=""/><path xmlns="http://www.w3.org/2000/svg" d="m102.402344 366.933594c-17.097656-.320313-34.03125-3.402344-50.144532-9.121094-3.558593-1.199219-5.914062-4.585938-5.800781-8.339844.039063-1.007812-.289062-1.996094-.921875-2.78125-13.695312-16.613281-45.535156-61.21875-45.535156-116.292968 0-30.8125 10.847656-68.265626 32.238281-111.410157 1.269531-2.558593 3.738281-4.316406 6.570313-4.675781 18.261718-2.292969 36.652344-3.421875 55.058594-3.378906 110.804687 0 230.398437 22.835937 230.398437 59.734375 0 24.472656-16.511719 105.375-53.699219 142.566406-37.945312 37.945313-128.246094 53.699219-168.164062 53.699219zm-39.765625-23.707032c12.851562 4.167969 26.253906 6.402344 39.765625 6.640626 43.894531 0 124.738281-17.339844 156.097656-48.699219 32.128906-32.136719 48.699219-106.035157 48.699219-130.5 0-13.03125-80.597657-42.667969-213.332031-42.667969-16.15625-.035156-32.304688.867188-48.359376 2.695312-18.875 38.972657-28.441406 72.5-28.441406 99.703126 0 49.546874 29.125 90.25 41.644532 105.449218 1.789062 2.171875 3.121093 4.683594 3.925781 7.378906zm0 0" fill="#000000" data-original="#000000" style="" class=""/><path xmlns="http://www.w3.org/2000/svg" d="m76.800781 363.734375c-3.277343-.003906-6.261719-1.886719-7.679687-4.839844-17.5625-36.554687-26.453125-68.300781-26.453125-94.359375.980469-50.449218 10.386719-100.378906 27.835937-147.722656 1.039063-2.867188 3.53125-4.957031 6.535156-5.488281 3-.53125 6.058594.578125 8.019532 2.914062 1.960937 2.332031 2.527344 5.535157 1.488281 8.402344-16.777344 45.476563-25.839844 93.433594-26.8125 141.894531 0 23.148438 8.53125 53.230469 24.746094 86.96875 2.039062 4.246094.25 9.34375-3.992188 11.382813-1.148437.558593-2.410156.847656-3.6875.847656zm0 0" fill="#000000" data-original="#000000" style="" class=""/><path xmlns="http://www.w3.org/2000/svg" d="m51.199219 290.132812c-18.542969 0-42.445313-10.8125-51.019531-62.292968-.773438-4.648438 2.363281-9.046875 7.015624-9.820313 4.648438-.777343 9.046876 2.363281 9.820313 7.011719 5.308594 31.875 16.8125 48.035156 34.183594 48.035156 60.058593 0 152.476562-111.445312 179.363281-145.605468 1.859375-2.46875 4.910156-3.738282 7.976562-3.316407 3.0625.421875 5.65625 2.464844 6.785157 5.34375 1.125 2.878907.609375 6.140625-1.355469 8.53125-36.003906 45.738281-126.875 152.113281-192.769531 152.113281zm0 0" fill="#000000" data-original="#000000" style="" class=""/><path xmlns="http://www.w3.org/2000/svg" d="m68.644531 345.53125c-4.714843 0-8.535156-3.820312-8.535156-8.53125 0-4.714844 3.820313-8.535156 8.535156-8.535156 59.730469 0 163.480469-78.796875 212.835938-184.261719 2-4.269531 7.078125-6.109375 11.351562-4.113281 4.269531 2 6.109375 7.082031 4.113281 11.351562-48.402343 103.390625-155.078124 194.089844-228.300781 194.089844zm0 0" fill="#000000" data-original="#000000" style="" class=""/><path xmlns="http://www.w3.org/2000/svg" d="m266.777344 313.414062c-2.914063 0-5.632813-1.484374-7.203125-3.945312-21.160157-33.140625-85.5625-133.972656-194.710938-133.972656-25.335937 0-37.042969 3.585937-42.410156 6.578125-4.097656 2.164062-9.171875.660156-11.429687-3.378907-2.261719-4.042968-.886719-9.152343 3.101562-11.511718 10.519531-5.886719 27.117188-8.753906 50.738281-8.753906 118.5 0 186.691407 106.792968 209.066407 141.882812 2.542968 3.960938 1.398437 9.234375-2.5625 11.785156-1.371094.871094-2.964844 1.328125-4.589844 1.316406zm0 0" fill="#000000" data-original="#000000" style="" class=""/><path xmlns="http://www.w3.org/2000/svg" d="m301.527344 247.800781c-2.371094 0-4.632813-.984375-6.246094-2.714843l-4.269531-4.625c-51.308594-55.160157-104.335938-112.203126-212.503907-112.203126-4.714843 0-8.535156-3.824218-8.535156-8.535156 0-4.710937 3.820313-8.535156 8.535156-8.535156 115.59375 0 173.695313 62.507812 224.957032 117.652344l4.265625 4.605468c2.316406 2.488282 2.9375 6.109376 1.582031 9.226563s-4.429688 5.128906-7.828125 5.128906zm0 0" fill="#000000" data-original="#000000" style="" class=""/><path xmlns="http://www.w3.org/2000/svg" d="m93.867188 93.78125h-.179688c-4.625-.054688-8.347656-3.820312-8.355469-8.449219.980469-10.371093 4.199219-20.40625 9.429688-29.414062 2.109375-4.21875 7.234375-5.929688 11.453125-3.820313 4.21875 2.105469 5.929687 7.230469 3.824218 11.449219-3.882812 6.789063-6.472656 14.234375-7.636718 21.964844-.1875 4.589843-3.941406 8.226562-8.535156 8.269531zm0 0" fill="#000000" data-original="#000000" style="" class=""/><path xmlns="http://www.w3.org/2000/svg" d="m162.132812 93.867188c-2.777343-.003907-5.375-1.359376-6.96875-3.632813-1.597656-2.273437-1.984374-5.183594-1.042968-7.792969 1.058594-2.902344 27.117187-70.828125 138.113281-58.027344 3.027344.347657 5.644531 2.289063 6.855469 5.085938 1.214844 2.800781.839844 6.035156-.976563 8.484375-1.816406 2.449219-4.804687 3.742187-7.835937 3.394531-96.953125-11.1875-119.234375 44.59375-120.128906 46.976563-1.273438 3.316406-4.460938 5.511719-8.015626 5.511719zm0 0" fill="#000000" data-original="#000000" style="" class=""/><path xmlns="http://www.w3.org/2000/svg" d="m358.402344 204.800781c0 4.710938-3.824219 8.53125-8.535156 8.53125-4.710938 0-8.535157-3.820312-8.535157-8.53125 0-4.714843 3.824219-8.535156 8.535157-8.535156 4.710937 0 8.535156 3.820313 8.535156 8.535156zm0 0" fill="#000000" data-original="#000000" style="" class=""/><path xmlns="http://www.w3.org/2000/svg" d="m332.800781 281.601562c0 4.710938-3.820312 8.53125-8.535156 8.53125-4.710937 0-8.53125-3.820312-8.53125-8.53125 0-4.714843 3.820313-8.535156 8.53125-8.535156 4.714844 0 8.535156 3.820313 8.535156 8.535156zm0 0" fill="#000000" data-original="#000000" style="" class=""/></g></svg>
