<svg xmlns="http://www.w3.org/2000/svg" viewBox="0 0 305.08 44.94"><defs><style>.cls-1{isolation:isolate;}.cls-2{fill:#fff;}.cls-3{fill:#d4be85;}</style></defs><g id="Layer_2" data-name="Layer 2"><g id="web_assets" data-name="web assets"><g id="HockEquality" class="cls-1"><g class="cls-1"><path class="cls-2" d="M16.48,22.78l1.41-6.62H12.38L11,22.78H0L4.54,1.44h11L13.92,9h5.5L21,1.44H32L27.45,22.78Z"/><path class="cls-2" d="M55,5.34A5.8,5.8,0,0,1,58.43,11a13.4,13.4,0,0,1-3.3,8.64c-2.43,2.6-6.14,3.78-11.9,3.78-7.55,0-11-2.18-11-7a12.75,12.75,0,0,1,3.26-8.74,11.79,11.79,0,0,1,5.73-2.94,35.72,35.72,0,0,1,6.52-.55C51.33,4.19,53.41,4.51,55,5.34ZM42.72,12A6.9,6.9,0,0,0,42,15.2c0,1.66.87,2.46,2.69,2.46a3.6,3.6,0,0,0,3.42-2,7.68,7.68,0,0,0,.83-3.2c0-1.41-.92-2.15-2.72-2.15A3.65,3.65,0,0,0,42.72,12Z"/><path class="cls-2" d="M80.32,21.92a29.1,29.1,0,0,1-8.87,1.34c-4.86,0-8-.73-9.72-2.27a6.47,6.47,0,0,1-1.79-4.9,12.14,12.14,0,0,1,3.45-8.51c2.18-2.08,6.4-3.26,11.78-3.26a47.14,47.14,0,0,1,8.7.93l-1.34,7a46.93,46.93,0,0,0-6.76-.61c-2.08,0-3.13.19-3.9.67a3,3,0,0,0-1.5,2.56c0,1.34,1.08,2.05,3.23,2.05a45.57,45.57,0,0,0,8.16-1Z"/><path class="cls-2" d="M97.85,22.78l-2.59-6.05L94,22.78H83.62L88.35.54H98.72l-2.5,11.65,5.44-7.39h12L105,13.92l3.65,8.86Z"/><path class="cls-2" d="M111.42,22.78,116,1.44h24.44L139,8.29h-13.5l-.42,2h13.51l-1.09,5.12H124l-.39,1.79h13.5l-1.18,5.6Z"/><path class="cls-2" d="M153.82,27l1.38-6.53c-2.4,2-4.42,2.72-8,2.72-2.59,0-4.29-.48-5.41-1.5a5.92,5.92,0,0,1-1.6-4.42c0-3.33,1.31-7.52,3-9.6s4.71-3.36,8.26-3.36c3.26,0,5.37,1,6.49,3l.55-2.53h10.36L164.19,27Zm-3.17-11.71a2.19,2.19,0,0,0,2.37,2.4,3.59,3.59,0,0,0,3.14-1.89,6.1,6.1,0,0,0,.76-2.79,2.15,2.15,0,0,0-2.39-2.39C152.29,10.66,150.65,12.61,150.65,15.33Z"/><path class="cls-2" d="M195.29,15.71c-1.12,5.34-5.25,7.52-14.14,7.52-5.25,0-8.8-.93-10.11-2.62a4.55,4.55,0,0,1-.93-3,7.9,7.9,0,0,1,.22-1.86L172.64,4.8H183l-2.17,10.3a7,7,0,0,0-.23,1.25c0,1,.55,1.44,1.8,1.44,1.6,0,2.24-.64,2.68-2.69l2.18-10.3h10.37Z"/><path class="cls-2" d="M212.64,22.78l.48-2.27c-2.4,2-4.42,2.72-8,2.72-2.56,0-4.29-.48-5.41-1.5a5.92,5.92,0,0,1-1.6-4.42c0-3.33,1.31-7.52,3-9.6s4.71-3.36,8.26-3.36c3.26,0,5.37,1,6.49,3l.55-2.53h10.36l-3.84,18Zm-4.07-7.45a2.19,2.19,0,0,0,2.37,2.4,3.6,3.6,0,0,0,3.14-1.89,6.1,6.1,0,0,0,.76-2.79,2.16,2.16,0,0,0-2.4-2.39C210.2,10.66,208.57,12.61,208.57,15.33Z"/><path class="cls-2" d="M225.82,22.78,230.56.54h10.36l-4.73,22.24Z"/><path class="cls-2" d="M239.65,22.78l3.87-18.3a26.39,26.39,0,0,0,5,.32,29,29,0,0,0,5.31-.32L250,22.78Zm14.59-19.9c-.16.74-.39.9-1.48.9h-7.45c-.9,0-1.15-.13-1.15-.52a3.37,3.37,0,0,1,.06-.38l.42-2c.16-.74.38-.9,1.47-.9h7.45c.9,0,1.16.13,1.16.48a3,3,0,0,1-.07.42Z"/><path class="cls-2" d="M269.85,22.43a39.49,39.49,0,0,1-8.35.8c-4.16,0-5.89-1-5.89-3.36a7.84,7.84,0,0,1,.16-1.44L257.15,12H254l.77-3.65L264,1.44h5.69L269,4.8h7.1l-1.5,7.2h-7.14l-.76,3.71a3.13,3.13,0,0,0-.1.8c0,.93.38,1.09,2.78,1.09a16.92,16.92,0,0,0,2.82-.19Z"/><path class="cls-2" d="M305.08,4.8l-9.73,14.27c-4.51,6.53-6.78,8.1-11.35,8h-9.57l1.21-5.67h6.6L277.12,4.8H287.9l1.57,8.9,4.83-8.9Z"/></g></g><g id="Playforall" class="cls-1"><g class="cls-1"><path class="cls-3" d="M31.09,36.49a3.56,3.56,0,0,1-1.32,3,5.89,5.89,0,0,1-3.69,1h-.86l-.9,4.27H22.47l2.41-11.42h2.61a4,4,0,0,1,2.7.79A2.93,2.93,0,0,1,31.09,36.49Zm-5.54,2.45h.74a3.36,3.36,0,0,0,2.15-.62,2.14,2.14,0,0,0,.76-1.76,1.55,1.55,0,0,0-.46-1.25,2.11,2.11,0,0,0-1.4-.39h-.93Z"/><path class="cls-3" d="M50.2,44.78l2.41-11.42h1.85l-2.07,9.82H56.6l-.34,1.6Z"/><path class="cls-3" d="M82.61,41.61H78.82l-1.63,3.17h-2l6.12-11.44h2.14l1.3,11.44H82.93ZM82.49,40c-.21-2.17-.33-3.48-.36-3.94s0-.82,0-1.09q-.44,1.09-1.11,2.4L79.63,40Z"/><path class="cls-3" d="M108.71,38.59l3.37-5.23h2.08l-4.86,7.13-.89,4.29h-1.86l.93-4.32-1.86-7.1h1.89Z"/><path class="cls-3" d="M133.65,44.78H131.8l2.41-11.42h6l-.33,1.6h-4.2L135,38.51h3.92l-.35,1.58h-3.91Z"/><path class="cls-3" d="M168.93,37.58a9.69,9.69,0,0,1-.74,3.88,5.92,5.92,0,0,1-2,2.59,5.26,5.26,0,0,1-3,.89A4.13,4.13,0,0,1,160,43.77a4.49,4.49,0,0,1-1.11-3.23,9.3,9.3,0,0,1,.77-3.81,6.19,6.19,0,0,1,2.11-2.64,5.3,5.3,0,0,1,3-.91,4,4,0,0,1,3.05,1.16A4.55,4.55,0,0,1,168.93,37.58Zm-4.29-2.8a2.91,2.91,0,0,0-1.95.75,4.92,4.92,0,0,0-1.37,2.08,8.31,8.31,0,0,0-.5,2.91,3.06,3.06,0,0,0,.64,2.09,2.21,2.21,0,0,0,1.78.73,2.89,2.89,0,0,0,1.94-.74,4.93,4.93,0,0,0,1.34-2.07,8.55,8.55,0,0,0,.48-2.94,3.17,3.17,0,0,0-.62-2.07A2.15,2.15,0,0,0,164.64,34.78Z"/><path class="cls-3" d="M191.35,40.22l-1,4.56h-1.85L191,33.36h2.64a4.22,4.22,0,0,1,2.67.74,2.72,2.72,0,0,1,.93,2.27,3.46,3.46,0,0,1-.67,2.17,3.84,3.84,0,0,1-2,1.3l1.94,4.94h-2l-1.62-4.56Zm.34-1.55h1a2.91,2.91,0,0,0,2-.58,2,2,0,0,0,.66-1.61,1.42,1.42,0,0,0-.46-1.18,2.33,2.33,0,0,0-1.43-.36h-.93Z"/><path class="cls-3" d="M222.43,41.61h-3.79L217,44.78h-2l6.11-11.44h2.15l1.29,11.44h-1.83ZM222.31,40c-.21-2.17-.33-3.48-.36-3.94s0-.82,0-1.09q-.43,1.09-1.11,2.4L219.46,40Z"/><path class="cls-3" d="M244.53,44.78,247,33.36h1.85l-2.08,9.82h4.21l-.34,1.6Z"/><path class="cls-3" d="M271,44.78l2.41-11.42h1.86l-2.08,9.82h4.21l-.34,1.6Z"/></g></g></g></g></svg>