<svg xmlns="http://www.w3.org/2000/svg" viewBox="0 0 435.96 120"><defs><style>.cls-1{isolation:isolate;}.cls-2{fill:#fff;}.cls-3{fill:#d4be85;}.cls-4{fill:#fbb611;}.cls-5{fill:#954b36;}.cls-6{fill:#0065a4;}.cls-7{fill:#7e8182;}.cls-8{fill:#c0282d;}</style></defs><g id="Layer_2" data-name="Layer 2"><g id="web_assets" data-name="web assets"><g id="logo-horiz"><g id="Group_38" data-name="Group 38"><g id="HockEquality" class="cls-1"><g class="cls-1"><path class="cls-2" d="M120.3,93l1.54-7.24h-6L114.28,93h-12l5-23.34h12l-1.75,8.26h6l1.75-8.26h12l-5,23.34Z"/><path class="cls-2" d="M162.44,73.92a6.33,6.33,0,0,1,3.75,6.16,14.73,14.73,0,0,1-3.61,9.45c-2.66,2.83-6.72,4.13-13,4.13-8.26,0-12-2.38-12-7.63a14,14,0,0,1,3.57-9.56,13,13,0,0,1,6.27-3.22,39.27,39.27,0,0,1,7.14-.59C158.42,72.66,160.69,73,162.44,73.92ZM149,81.23a7.56,7.56,0,0,0-.84,3.47c0,1.82,1,2.69,2.94,2.69a4,4,0,0,0,3.75-2.2,8.47,8.47,0,0,0,.91-3.5c0-1.54-1-2.35-3-2.35A4,4,0,0,0,149,81.23Z"/><path class="cls-2" d="M190.13,92.05a31.9,31.9,0,0,1-9.7,1.47c-5.32,0-8.71-.81-10.64-2.49a7,7,0,0,1-2-5.35,13.28,13.28,0,0,1,3.78-9.31c2.38-2.28,7-3.57,12.88-3.57a52,52,0,0,1,9.52,1l-1.47,7.7a52,52,0,0,0-7.38-.66c-2.28,0-3.43.21-4.27.73a3.27,3.27,0,0,0-1.65,2.8c0,1.47,1.19,2.24,3.54,2.24a49.9,49.9,0,0,0,8.92-1.12Z"/><path class="cls-2" d="M209.31,93l-2.84-6.61L205.07,93H193.73l5.18-24.32h11.34l-2.73,12.74,5.95-8.09h13.16l-9.55,10,4,9.69Z"/><path class="cls-2" d="M224.14,93l5-23.34h26.75l-1.58,7.49H239.51l-.45,2.17h14.77l-1.19,5.6H237.86l-.42,2h14.78L250.92,93Z"/><path class="cls-2" d="M270.52,97.65l1.5-7.14c-2.62,2.24-4.83,3-8.71,3-2.84,0-4.69-.52-5.92-1.64A6.45,6.45,0,0,1,255.64,87c0-3.64,1.44-8.23,3.33-10.5s5.14-3.68,9-3.68c3.57,0,5.88,1,7.11,3.26l.59-2.77H287l-5.18,24.33Zm-3.47-12.81a2.39,2.39,0,0,0,2.6,2.62,3.93,3.93,0,0,0,3.43-2.06,6.74,6.74,0,0,0,.84-3.05,2.37,2.37,0,0,0-2.63-2.62C268.84,79.73,267.05,81.86,267.05,84.84Z"/><path class="cls-2" d="M315.88,85.26c-1.22,5.84-5.74,8.22-15.47,8.22-5.74,0-9.63-1-11.06-2.87a5,5,0,0,1-1-3.32,8.39,8.39,0,0,1,.25-2l2.52-11.94h11.34l-2.38,11.27a7.16,7.16,0,0,0-.25,1.37c0,1.08.6,1.57,2,1.57,1.75,0,2.45-.7,2.94-2.94l2.38-11.27h11.35Z"/><path class="cls-2" d="M334.85,93l.52-2.48c-2.62,2.24-4.83,3-8.71,3-2.8,0-4.69-.52-5.92-1.64A6.45,6.45,0,0,1,319,87c0-3.64,1.44-8.23,3.33-10.5s5.14-3.68,9-3.68c3.57,0,5.88,1,7.1,3.26l.6-2.77h11.34L346.19,93Zm-4.45-8.15A2.39,2.39,0,0,0,333,87.46a3.9,3.9,0,0,0,3.43-2.06,6.62,6.62,0,0,0,.84-3.05,2.36,2.36,0,0,0-2.62-2.62C332.19,79.73,330.4,81.86,330.4,84.84Z"/><path class="cls-2" d="M349.27,93l5.18-24.32h11.34L360.61,93Z"/><path class="cls-2" d="M364.39,93l4.23-20a29.35,29.35,0,0,0,5.53.35A32.17,32.17,0,0,0,380,73l-4.23,20Zm16-21.77c-.18.81-.42,1-1.61,1h-8.16c-1,0-1.26-.14-1.26-.56,0-.07,0-.24.07-.42l.46-2.17c.17-.8.42-1,1.61-1h8.15c1,0,1.26.14,1.26.53a2.37,2.37,0,0,1-.07.45Z"/><path class="cls-2" d="M397.43,92.61a43.54,43.54,0,0,1-9.14.87c-4.55,0-6.44-1.08-6.44-3.67a7.73,7.73,0,0,1,.18-1.58l1.5-7h-3.39l.84-4,10.08-7.56h6.23l-.77,3.67h7.77l-1.65,7.88h-7.8L394,85.26a3.7,3.7,0,0,0-.11.87c0,1,.42,1.19,3.05,1.19a18,18,0,0,0,3.08-.21Z"/><path class="cls-2" d="M436,73.32,425.32,88.93c-4.93,7.14-7.42,8.86-12.42,8.72H402.43l1.33-6.2H411l-5.6-18.13h11.8l1.71,9.73,5.29-9.73Z"/></g></g><g id="Playforall" class="cls-1"><g class="cls-1"><path class="cls-3" d="M111.17,106.7a3.56,3.56,0,0,1-1.32,3,5.89,5.89,0,0,1-3.69,1h-.86l-.9,4.27h-1.85L105,103.57h2.61a4,4,0,0,1,2.7.79A2.93,2.93,0,0,1,111.17,106.7Zm-5.54,2.45h.74a3.36,3.36,0,0,0,2.15-.62,2.14,2.14,0,0,0,.76-1.76,1.56,1.56,0,0,0-.46-1.25,2.11,2.11,0,0,0-1.4-.39h-.93Z"/><path class="cls-3" d="M133.16,115l2.41-11.42h1.85l-2.07,9.82h4.21l-.34,1.6Z"/><path class="cls-3" d="M168.45,111.82h-3.79L163,115h-2l6.12-11.43h2.14L170.6,115h-1.83Zm-.13-1.62c-.2-2.17-.32-3.48-.35-3.94s0-.82,0-1.09q-.44,1.1-1.11,2.4l-1.35,2.63Z"/><path class="cls-3" d="M197.43,108.8l3.37-5.23h2.08L198,110.7l-.89,4.29h-1.86l.93-4.32-1.86-7.1h1.9Z"/><path class="cls-3" d="M225.25,115H223.4l2.41-11.42h6.05l-.34,1.6h-4.19l-.75,3.55h3.92l-.35,1.59h-3.91Z"/><path class="cls-3" d="M263.41,107.79a9.69,9.69,0,0,1-.74,3.88,5.92,5.92,0,0,1-2,2.59,5.26,5.26,0,0,1-3,.89,4.13,4.13,0,0,1-3.14-1.17,4.49,4.49,0,0,1-1.11-3.23,9.3,9.3,0,0,1,.77-3.81,6.16,6.16,0,0,1,2.11-2.63,5.24,5.24,0,0,1,3-.92,4,4,0,0,1,3.05,1.17A4.51,4.51,0,0,1,263.41,107.79Zm-4.29-2.8a2.91,2.91,0,0,0-1.95.75,4.89,4.89,0,0,0-1.37,2.09,8.23,8.23,0,0,0-.5,2.91,3,3,0,0,0,.64,2.08,2.22,2.22,0,0,0,1.78.74,2.9,2.9,0,0,0,1.94-.75,4.93,4.93,0,0,0,1.34-2.07,8.54,8.54,0,0,0,.48-2.93,3.14,3.14,0,0,0-.62-2.07A2.12,2.12,0,0,0,259.12,105Z"/><path class="cls-3" d="M288.71,110.43l-1,4.56H285.9l2.41-11.42H291a4.22,4.22,0,0,1,2.67.74,2.72,2.72,0,0,1,.93,2.27,3.51,3.51,0,0,1-.67,2.18,3.83,3.83,0,0,1-2,1.29l1.94,4.94h-2l-1.62-4.56Zm.34-1.55h1a2.91,2.91,0,0,0,2-.58,2,2,0,0,0,.66-1.61,1.42,1.42,0,0,0-.46-1.18,2.33,2.33,0,0,0-1.43-.36h-.93Z"/><path class="cls-3" d="M322.67,111.82h-3.79L317.25,115h-2l6.11-11.43h2.14l1.3,11.43H323Zm-.12-1.62c-.21-2.17-.33-3.48-.36-3.94s0-.82,0-1.09q-.43,1.1-1.11,2.4l-1.34,2.63Z"/><path class="cls-3" d="M347.65,115l2.42-11.42h1.85l-2.08,9.82h4.21l-.34,1.6Z"/><path class="cls-3" d="M377,115l2.41-11.42h1.86l-2.08,9.82h4.21l-.34,1.6Z"/></g></g></g><g id="logo-120"><path id="Path_79" data-name="Path 79" class="cls-3" d="M81.57,44.77c-.3,3.53-1,5.91-3.34,7.61l-2.5,1.8L73.23,56l-.5.36-3.51,2.45C66.84,63.58,63,63.14,63,63.14L55.3,68.48a10.35,10.35,0,0,1-3.75,5.87,12.67,12.67,0,0,1-6.68,2.23c.11,1.34.28,2.6.28,3.74a5.24,5.24,0,0,1-1.69,4.33c-2.26,1.95-6.93,2.5-6.93,2.5a15.59,15.59,0,0,1-.28,3.34,6.87,6.87,0,0,1-3.61,2.56,10.55,10.55,0,0,1-5,.5.46.46,0,0,1-.18-.13,16.34,16.34,0,0,1-2.1-4.3l-.85.57-11.7,7.9L2.23,104.73c-.94.62-1,1-.56,2.3a28.68,28.68,0,0,0,4.8,8c5.25-3.68,27.24-19,47.71-33.31C54.05,73,57.67,69.34,61.29,68a9.82,9.82,0,0,1,10.26,1.67l2.56-1.79c10.56-7.36,18.19-12.67,18.69-13a11.13,11.13,0,0,0,3.57-6.08c.06-.26.11-.55.18-.87.17-.84.39-1.89.61-3.11Z"/><path id="Path_80" data-name="Path 80" class="cls-4" d="M98.71,24c0,1.95,0,3.85-.06,5.56H81.26c-.06-1.08-.13-2.22-.22-3.43,0-.71-.09-1.42-.14-2.13Z"/><path id="Path_81" data-name="Path 81" class="cls-3" d="M98.63,14.79H80.27c-.06-.8-.12-1.57-.17-2.31-.21-3-.38-5.32-.44-6.4-.1-1.67,1.72-3.45,4.26-4.14a27.58,27.58,0,0,1,6.47-.56c.89,0,1.71,0,2.36,0l1.11,0A5.77,5.77,0,0,1,97,2.31c.43.28,1.09.72,1.33,3.42C98.45,7.3,98.56,10.74,98.63,14.79Z"/><path id="Path_82" data-name="Path 82" class="cls-5" d="M98.62,30.94c0,.46,0,.91,0,1.34-.06,1.49-.15,2.91-.28,4.26H81.6c-.06-1.64-.15-3.51-.28-5.6Z"/><path id="Path_83" data-name="Path 83" d="M98.71,22.58H80.8c-.14-2-.28-4-.41-5.84H98.66C98.69,18.65,98.7,20.63,98.71,22.58Z"/><path id="Path_84" data-name="Path 84" class="cls-6" d="M98.18,37.85c-.23,2.11-.51,4-.8,5.68H81.66c.06-1.45.06-3.32,0-5.68Z"/><path id="Path_85" data-name="Path 85" class="cls-2" d="M99.69,5.61c-.28-3.06-1.12-3.9-2-4.45A7.19,7.19,0,0,0,93.84,0C92.17,0,86.6-.23,83.54.6S78.1,3.66,78.25,6.17s.84,11.69,1.39,20,.84,14.8.56,18.25-.83,5.4-2.78,6.79-3,2.23-5,3.59l0-.25A40.06,40.06,0,0,0,69.35,44S61,40.68,54.88,47.36c0,0-8.08-1.12-11.69,4.73,0,0-10,.83-12.53,7.79A18.78,18.78,0,0,0,23.43,66c-2.28,3.42-2.22,5-1.95,7.51s1.05,5.51,1.4,7.24a53.37,53.37,0,0,0,2,7l-1.14.77c-11.13,7.52-20.59,13.92-22.26,15s-1.67,2.23-1.12,3.9,1.95,4.73,5.85,9.46l19.23-13.42c-.14,1.06-.25,1.95-.31,2.57-.28,3.06.28,5,1.67,6.4a2.94,2.94,0,0,0,1.11,3.06c1.67,1.39,7,3.06,12.25,3.9s6.68.56,7.51.28,1.4-.84,2.79-4.45c0,0,3.06,3.34,3.9,3.61s8.07-.55,10-1.11,5.28-1.39,6.68-2.22,1.11-1.12,1.11-2.79-.48-4.7-.28-5.29A8.6,8.6,0,0,0,73,104.41c.13-.87,0-6.31.28-7.19s1.11-1.15,1.39-3.66c.19-1.68.28-4.45.28-7a52.71,52.71,0,0,0-.28-6.4c-.2-2.22-.55-4.45-.55-5.56.12-1.72.15-3.44.1-5.16C85.11,61.87,93.07,56.32,93.56,56c1.67-1.11,3.62-4.17,4.18-7A96.87,96.87,0,0,0,100,32.33C100.24,24.54,100,9.5,99.69,5.61ZM80.1,12.48c-.22-3-.38-5.32-.45-6.4-.1-1.67,1.73-3.45,4.27-4.14a27.45,27.45,0,0,1,6.46-.56c.89,0,1.71,0,2.36,0l1.12,0A5.73,5.73,0,0,1,97,2.31c.44.28,1.09.72,1.33,3.42.15,1.56.27,5,.34,9.06H80.28C80.2,14,80.15,13.22,80.1,12.48Zm-23,35.71c2.08-1.81,4.07-3.06,7-3.06a17.23,17.23,0,0,1,4.28.57,28.7,28.7,0,0,1,.45,6.67A23.94,23.94,0,0,0,56.93,54.9a55.48,55.48,0,0,1,.18-6.7Zm-.38,8.66a28.79,28.79,0,0,1,6.5-2.26,30.09,30.09,0,0,1,5.6-.46,8.42,8.42,0,0,1-1.35,4.19,5.51,5.51,0,0,1-1.3,1.42,3.33,3.33,0,0,1-1.73.69,51.9,51.9,0,0,1-8-.28,13,13,0,0,1,.27-3.3ZM56,62.94a9.11,9.11,0,0,0,3.06.56l-3.34,2.22S55.72,65.45,56,62.94ZM45.14,52.64c2.35-2.8,6-3.42,8.16-3.42a12.81,12.81,0,0,1,1.39.07s-.09,5.56-.64,7S52.1,57.36,49.93,58a35.91,35.91,0,0,0-5.07,2.16c-.28-5.83.28-7.5.28-7.5Zm0,9.46c.56-.28,2.23-1.11,4.32-2a20.06,20.06,0,0,1,4-1.11,70.47,70.47,0,0,1-.44,9.3,10.6,10.6,0,0,1-.4,1.84l-.06.17C52,71.89,50.92,72.44,49,73.24a7.09,7.09,0,0,1-1.13.36,11.28,11.28,0,0,1-2.78.23l-.56,0c-.26-7.52,0-11.42.58-11.69ZM43,77c.35,4.42-.28,5-2,5.7a16.66,16.66,0,0,1-5.1,1.21,7.27,7.27,0,0,1-.77-1.46c-.17-.43-.33-.88-.47-1.36a38.26,38.26,0,0,1-1.17-6.18,20.15,20.15,0,0,0,8.91-4.4s.16,1.88.48,4.9Q42.93,76.27,43,77Zm-.64-22.68c0,4.17,0,8.62-.26,11.15s0,2.76-2,4.43-7.51,3.62-7.51,3.62a98.33,98.33,0,0,1-.83-12.25s1.64-5.29,10.57-7Zm-19.48,19c-.25-2.16,0-3.37,2.22-6.52a14.42,14.42,0,0,1,5.35-4.73c.06,7,.22,8.9.5,10.85s.28,2.78-.28,3.34a23.13,23.13,0,0,1-3.14,2.61c-2,1.49-3.48.93-3.48.93a46,46,0,0,1-1.18-6.47Zm1.85,8.92c5.11-1.81,7.06-4.59,7.06-4.59A29.13,29.13,0,0,1,33.25,82c.12.48.24,1,.34,1.45.63,2.89.88,5.76,0,6.67-1.51,1.6-5.45,1.46-5.45,1.46a31.57,31.57,0,0,1-1.61-3.31c-.19-.46-.37-.9-.53-1.32a18.66,18.66,0,0,1-1.31-4.7Zm2.48,28.53c-.53-.83-.94-2.16-.71-4.61,0-.43.09-.93.15-1.48s.15-1.43.22-2.22l2.73-1.91a11.88,11.88,0,0,1-.31,3.26c-.29,1.11-2.09,7-2.09,7Zm21.93,4c-1.32,3.43-1.71,3.56-1.93,3.64a4.8,4.8,0,0,1-1.64.2,35.26,35.26,0,0,1-5.22-.54c-5.53-.87-10.31-2.54-11.57-3.59a1.56,1.56,0,0,1-.68-1.57l.34-.83s3.34-9,3.34-10.72c0,0,3.06,2.22,13.36,2.78a21.33,21.33,0,0,0,4.21,10.05Zm4.64-20.1a30.47,30.47,0,0,0,.27,6.68A38.11,38.11,0,0,1,32.62,100l0-1.49.44-.32,5.49-3.82.31-.22a37.48,37.48,0,0,0,14.88.56ZM40.73,92.82l0,0L50,86.33l3.72-2.59.5-.36a58.32,58.32,0,0,1-.2,9.62,38.49,38.49,0,0,1-6.95.55,26.86,26.86,0,0,1-6.38-.73Zm9.71,19.94a15.34,15.34,0,0,1-3.07-8.63,39.28,39.28,0,0,0,6.68-.56s0,6.22.72,13.69a17.36,17.36,0,0,1-4.34-4.5Zm19.48,1.94A35.9,35.9,0,0,1,65,116.13l-1.07.3a31.22,31.22,0,0,1-7.39,1s-.58-4.71-.3-5,3.06,0,6.12-.84a32.58,32.58,0,0,0,6.68-2.5s1.49-.65,1.67.28A18.29,18.29,0,0,1,71,113c0,.83,0,1.11-1.12,1.67Zm.63-8c-1,.91-5.09,2.67-8.43,3.5a17.71,17.71,0,0,1-5,.84c-.83,0-1.11-.56-1.11-1.67v-5.89c0-.8.84-.53,2.23-.8a85.65,85.65,0,0,0,8.35-2c2.5-.83,4.78-1.9,5.16-1.73a19.16,19.16,0,0,1,.12,3.12c0,2-.28,3.63-1.32,4.58Zm3-20.15c0,2.27-.08,4.54-.28,6.8a4.33,4.33,0,0,1-.77,2.3c-.15.22-.2.56-.44.77a34.93,34.93,0,0,1-8.54,2.93c-3.9.83-5.63,1.11-6.71,0s-1.08-2.23-1.08-3.62V89.3a34.91,34.91,0,0,0,17.81-4.86c.52-.31,0,1.27,0,2.15ZM55.6,82.45c0-.58.06-1.17.12-1.78a17.86,17.86,0,0,1,1.39-5.76c2.23-4.73,6.12-5.85,9.74-5.29a6.6,6.6,0,0,1,3,1.2,5.92,5.92,0,0,1,1,1,10,10,0,0,1,1.89,3.9,15.36,15.36,0,0,1,.22,2c.1.8.2,1.72.28,2.6s.14,1.52.17,2.1c0,0-8.52,4.73-17.71,4.88a35.71,35.71,0,0,1-.12-4.85ZM96.55,47.87c-.07.32-.12.61-.18.87a11,11,0,0,1-3.58,6.07c-.5.33-8.12,5.64-18.68,13l-2.56,1.79a9.83,9.83,0,0,0-10.27-1.67c-3.62,1.39-7.23,5-7.1,13.79C33.7,96,11.71,111.37,6.45,115.05a28.68,28.68,0,0,1-4.8-8c-.45-1.35-.37-1.67.55-2.3s5.05-3.4,10.58-7.14L24.49,89.7l.85-.58a17.71,17.71,0,0,0,2.09,4.31.59.59,0,0,0,.18.13,10.8,10.8,0,0,0,5-.5,6.94,6.94,0,0,0,3.61-2.57,15.59,15.59,0,0,0,.28-3.34s4.67-.55,6.93-2.5a5.23,5.23,0,0,0,1.69-4.32c0-1.15-.16-2.4-.28-3.75a12.58,12.58,0,0,0,6.68-2.23,10.32,10.32,0,0,0,3.75-5.87L63,63.14s3.86.45,6.23-4.33l3.51-2.45.51-.36,2.5-1.82c.75-.56,1.52-1.11,2.5-1.8,2.38-1.7,3-4.09,3.34-7.61H97.15c-.21,1.22-.42,2.26-.6,3.1Zm.84-4.34H81.66c.06-1.46.06-3.32,0-5.69H98.18c-.22,2.13-.51,4-.8,5.7Zm1.18-11.25c0,1.49-.14,2.91-.28,4.27H81.6c-.07-1.65-.16-3.51-.28-5.61H98.59c0,.46,0,.91,0,1.34Zm.08-2.73H81.26c-.06-1.08-.13-2.23-.22-3.43,0-.71-.09-1.42-.14-2.14H98.71c0,1.95,0,3.85-.06,5.56Zm-17.85-7c-.14-2-.28-4-.41-5.84H98.66c0,1.9,0,3.9,0,5.84Z"/><path id="Path_86" data-name="Path 86" class="cls-6" d="M49.35,114.19l-.22.58c-1.32,3.42-1.71,3.56-1.93,3.63a4.8,4.8,0,0,1-1.64.2,34.72,34.72,0,0,1-5.2-.54c-5.54-.87-10.32-2.54-11.58-3.59a1.55,1.55,0,0,1-.67-1.56l.33-.84s3.34-9,3.34-10.72c0,0,3.06,2.23,13.36,2.78A21.51,21.51,0,0,0,49.35,114.19Z"/><path id="Path_87" data-name="Path 87" d="M54.76,117.26a17.64,17.64,0,0,1-4.33-4.5,15.33,15.33,0,0,1-3.06-8.63,39.37,39.37,0,0,0,6.68-.56S54.08,109.8,54.76,117.26Z"/><path id="Path_88" data-name="Path 88" d="M71,113c0,.84,0,1.12-1.11,1.67A36.19,36.19,0,0,1,65,116.13l-1.08.3a31.22,31.22,0,0,1-7.39,1s-.58-4.71-.3-5,3.06,0,6.13-.84a32.58,32.58,0,0,0,6.68-2.5s1.48-.65,1.67.28A18.18,18.18,0,0,1,71,113Z"/><path id="Path_89" data-name="Path 89" class="cls-4" d="M71.86,102.18c0,1.95-.28,3.62-1.32,4.57s-5.08,2.67-8.42,3.5a17.83,17.83,0,0,1-5,.84c-.84,0-1.12-.56-1.12-1.67v-5.89c0-.8.84-.52,2.23-.8a85.65,85.65,0,0,0,8.35-2c2.5-.83,4.79-1.9,5.16-1.73A20.49,20.49,0,0,1,71.86,102.18Z"/><path id="Path_90" data-name="Path 90" class="cls-5" d="M73.53,86.6a67.11,67.11,0,0,1-.28,6.8,4.33,4.33,0,0,1-.77,2.3c-.15.22-.2.55-.44.77A34.93,34.93,0,0,1,63.5,99.4c-3.9.83-5.63,1.11-6.71,0s-1.08-2.23-1.08-3.62V89.3a34.88,34.88,0,0,0,17.81-4.86C74.05,84.13,73.53,85.72,73.53,86.6Z"/><path id="Path_91" data-name="Path 91" class="cls-6" d="M73.43,82.42S64.9,87.15,55.72,87.3a35.76,35.76,0,0,1-.13-4.85c0-.58.06-1.17.12-1.78a18.4,18.4,0,0,1,1.39-5.76c2.23-4.73,6.13-5.85,9.75-5.29a6.61,6.61,0,0,1,3,1.2,6.37,6.37,0,0,1,1,1,10.19,10.19,0,0,1,1.89,3.9,17.26,17.26,0,0,1,.22,2c.09.8.2,1.72.28,2.6S73.39,81.84,73.43,82.42Z"/><path id="Path_92" data-name="Path 92" class="cls-7" d="M68.8,52.37A23.94,23.94,0,0,0,56.93,54.9a55.48,55.48,0,0,1,.18-6.7c2.08-1.81,4.07-3.06,7-3.06a17.23,17.23,0,0,1,4.28.57,28.61,28.61,0,0,1,.45,6.66Z"/><path id="Path_93" data-name="Path 93" class="cls-4" d="M54.69,49.29s-.09,5.57-.64,7S52.1,57.36,49.94,58a34.39,34.39,0,0,0-5.08,2.15c-.27-5.84.28-7.51.28-7.51,2.35-2.8,6-3.42,8.16-3.42A12.81,12.81,0,0,1,54.69,49.29Z"/><path id="Path_94" data-name="Path 94" class="cls-8" d="M42.36,54.31c0,4.18,0,8.63-.26,11.16s0,2.76-2,4.43-7.51,3.62-7.51,3.62a100.29,100.29,0,0,1-.84-12.25S33.43,56,42.36,54.31Z"/><path id="Path_95" data-name="Path 95" class="cls-6" d="M30.67,76.3a23.76,23.76,0,0,1-3.14,2.61c-2,1.49-3.48.93-3.48.93a44.48,44.48,0,0,1-1.18-6.48c-.25-2.16,0-3.37,2.22-6.52a14.42,14.42,0,0,1,5.35-4.73c.06,7,.22,8.9.5,10.85S31.22,75.75,30.67,76.3Z"/><path id="Path_96" data-name="Path 96" class="cls-6" d="M33.61,90.14c-1.51,1.6-5.45,1.47-5.45,1.47-.59-1.08-1.13-2.18-1.61-3.31-.19-.46-.36-.9-.52-1.33a17.68,17.68,0,0,1-1.31-4.69c5.11-1.81,7.06-4.59,7.06-4.59A29.13,29.13,0,0,1,33.24,82c.12.48.24,1,.35,1.45C34.21,86.37,34.46,89.24,33.61,90.14Z"/><path id="Path_97" data-name="Path 97" class="cls-4" d="M29.28,103.85c-.28,1.11-2.08,7-2.08,7-.53-.84-.93-2.16-.71-4.61,0-.44.09-.93.15-1.48s.15-1.43.22-2.23l2.73-1.9A11.91,11.91,0,0,1,29.28,103.85Z"/><path id="Path_98" data-name="Path 98" class="cls-5" d="M41,82.7a16.52,16.52,0,0,1-5.1,1.21,7.55,7.55,0,0,1-.77-1.46c-.17-.43-.33-.89-.47-1.37a38.14,38.14,0,0,1-1.17-6.17,20.1,20.1,0,0,0,8.91-4.4s.16,1.87.48,4.9c.07.58.12,1.11.15,1.58C43.35,81.42,42.72,82,41,82.7Z"/><path id="Path_99" data-name="Path 99" class="cls-4" d="M53.49,59a70.39,70.39,0,0,1-.44,9.3,11.37,11.37,0,0,1-.4,1.84l-.07.18C52,71.89,50.91,72.44,49,73.24a5.71,5.71,0,0,1-1.13.36,11.37,11.37,0,0,1-2.79.24l-.55,0c-.28-7.51,0-11.41.55-11.69s2.23-1.11,4.32-2A20.36,20.36,0,0,1,53.49,59Z"/><path id="Path_100" data-name="Path 100" class="cls-5" d="M59.06,63.5l-3.34,2.22s0-.27.27-2.78A9.16,9.16,0,0,0,59.06,63.5Z"/><path id="Path_101" data-name="Path 101" d="M68.83,54.13a8.36,8.36,0,0,1-1.36,4.19,5.18,5.18,0,0,1-1.3,1.42,3.38,3.38,0,0,1-1.72.69,51.9,51.9,0,0,1-8-.28,13.14,13.14,0,0,1,.26-3.31,28.79,28.79,0,0,1,6.5-2.26,30.08,30.08,0,0,1,5.6-.45Z"/><path id="Path_102" data-name="Path 102" class="cls-7" d="M54.05,93a39.61,39.61,0,0,1-7,.56,27.32,27.32,0,0,1-6.37-.74l0,0L50,86.34l3.72-2.6.51-.35A59.34,59.34,0,0,1,54.05,93Z"/><path id="Path_103" data-name="Path 103" class="cls-8" d="M54.05,101.35A38.27,38.27,0,0,1,32.62,100l0-1.5.45-.31,5.48-3.82.31-.22a37.91,37.91,0,0,0,14.89.56A30.48,30.48,0,0,0,54.05,101.35Z"/></g></g></g></g></svg>